<?xml version="1.0" encoding="UTF-8" standalone="no"?>
<!-- Created with Inkscape (http://www.inkscape.org/) -->
<svg
   xmlns:dc="http://purl.org/dc/elements/1.1/"
   xmlns:cc="http://web.resource.org/cc/"
   xmlns:rdf="http://www.w3.org/1999/02/22-rdf-syntax-ns#"
   xmlns:svg="http://www.w3.org/2000/svg"
   xmlns="http://www.w3.org/2000/svg"
   xmlns:sodipodi="http://sodipodi.sourceforge.net/DTD/sodipodi-0.dtd"
   xmlns:inkscape="http://www.inkscape.org/namespaces/inkscape"
   width="480"
   height="422"
   id="svg2"
   sodipodi:version="0.32"
   inkscape:version="0.45"
   version="1.0"
   inkscape:output_extension="org.inkscape.output.svg.inkscape"
   sodipodi:modified="true">
  <defs
     id="defs4" />
  <sodipodi:namedview
     id="base"
     pagecolor="#ffffff"
     bordercolor="#666666"
     borderopacity="1.0"
     gridtolerance="10000"
     guidetolerance="10"
     objecttolerance="10"
     inkscape:pageopacity="0.0"
     inkscape:pageshadow="2"
     inkscape:zoom="1"
     inkscape:cx="141.65"
     inkscape:cy="250.4071"
     inkscape:document-units="px"
     inkscape:current-layer="layer1"
     inkscape:window-width="1024"
     inkscape:window-height="721"
     inkscape:window-x="0"
     inkscape:window-y="20"
     width="480px"
     height="422px" />
  <metadata
     id="metadata7">
    <rdf:RDF>
      <cc:Work
         rdf:about="">
        <dc:format>image/svg+xml</dc:format>
        <dc:type
           rdf:resource="http://purl.org/dc/dcmitype/StillImage" />
      </cc:Work>
    </rdf:RDF>
  </metadata>
  <g
     inkscape:label="Layer 1"
     inkscape:groupmode="layer"
     id="layer1">
    <path
       style="fill:#ffcc00;stroke:#000000;stroke-width:5px"
       d="M 80,91 L 400,91 L 400,156 L 80,156 L 80,91 z "
       id="Pins" />
    <g
       id="BaseAndClip"
       style="fill:#ffffff;stroke:#000000;stroke-width:5px">
      <path
         sodipodi:nodetypes="ccccc"
         id="ClipEnd"
         d="M 180,306 L 300,306 L 300,381 L 180,381 L 180,306 z " />
      <path
         sodipodi:nodetypes="ccccc"
         id="ClipBase"
         d="M 130,221 L 350,221 L 350,331 L 130,331 L 130,221 z " />
      <path
         sodipodi:nodetypes="ccccc"
         id="Base"
         d="M 41,81 L 95,81 L 95,146 L 115,146 L 115,81 L 134,81 L 134,146 L 154,146 L 154,81 L 173,81 L 173,146 L 193,146 L 193,81 L 212,81 L 212,146 L 232,146 L 232,81 L 251,81 L 251,146 L 271,146 L 271,81 L 290,81 L 290,146 L 310,146 L 310,81 L 329,81 L 329,146 L 349,146 L 349,81 L 368,81 L 368,146 L 388,146 L 388,81 L 439,81 L 439,281 L 41,281 L 41,81 z " />
    </g>
    <g
       id="PinLabels"
       style="font-size:32px;text-align:center;text-anchor:middle;fill:#000000;font-family:sans">
      <text
         id="Pin1Label"
         y="61.499748"
         x="378"
         xml:space="preserve">1</text>
      <text
         id="Pin2Label"
         y="61.499748"
         x="339"
         xml:space="preserve">2</text>
      <text
         id="Pin3Label"
         y="61.499748"
         x="300"
         xml:space="preserve">3</text>
      <text
         id="Pin4Label"
         y="61.499748"
         x="261"
         xml:space="preserve">4</text>
      <text
         id="Pin5Label"
         y="61.499748"
         x="222"
         xml:space="preserve">5</text>
      <text
         id="Pin6Label"
         y="61.499748"
         x="183"
         xml:space="preserve">6</text>
      <text
         id="Pin7Label"
         y="61.499748"
         x="144"
         xml:space="preserve">7</text>
      <text
         id="Pin8Label"
         y="61.499748"
         x="105"
         xml:space="preserve">8</text>
    </g>
  </g>
</svg>
